<svg id="facebook-logo" xmlns="http://www.w3.org/2000/svg" width="9.732" height="18" viewBox="0 0 9.732 18">
  <path id="Path_334" data-name="Path 334" d="M17.174,0,14.84,0a4.1,4.1,0,0,0-4.317,4.43V6.472H8.176a.367.367,0,0,0-.367.367V9.8a.367.367,0,0,0,.367.367h2.347v7.467A.367.367,0,0,0,10.89,18h3.062a.367.367,0,0,0,.367-.367V10.166h2.744A.367.367,0,0,0,17.43,9.8V6.839a.367.367,0,0,0-.367-.367H14.319V4.741c0-.832.2-1.255,1.282-1.255h1.572a.367.367,0,0,0,.367-.367V.371A.367.367,0,0,0,17.174,0Z" transform="translate(-7.809)" fill="#fff"/>
</svg>
