<svg xmlns="http://www.w3.org/2000/svg" width="8.335" height="7.986" viewBox="0 0 8.335 7.986">
  <path id="star" d="M8.154,4.666a.6.6,0,0,0-.331-1.02L5.8,3.353a.264.264,0,0,1-.2-.144L4.7,1.38a.6.6,0,0,0-1.072,0l-.9,1.829a.264.264,0,0,1-.2.144L.512,3.647A.6.6,0,0,0,.18,4.666L1.64,6.09a.264.264,0,0,1,.076.234l-.344,2.01a.585.585,0,0,0,.13.485.6.6,0,0,0,.737.145l1.8-.949a.27.27,0,0,1,.246,0l1.805.949a.592.592,0,0,0,.278.07.6.6,0,0,0,.459-.215.585.585,0,0,0,.13-.485l-.345-2.01a.264.264,0,0,1,.076-.234Z" transform="translate(0.001 -1.047)" fill="#76d9d2"/>
</svg>
