<svg id="instagram" xmlns="http://www.w3.org/2000/svg" width="15.33" height="15.33" viewBox="0 0 15.33 15.33">
  <g id="Group_113" data-name="Group 113">
    <g id="Group_112" data-name="Group 112">
      <path id="Path_338" data-name="Path 338" d="M10.54,0H4.791A4.791,4.791,0,0,0,0,4.791V10.54A4.791,4.791,0,0,0,4.791,15.33H10.54A4.791,4.791,0,0,0,15.33,10.54V4.791A4.791,4.791,0,0,0,10.54,0Zm3.354,10.54a3.357,3.357,0,0,1-3.354,3.354H4.791A3.357,3.357,0,0,1,1.437,10.54V4.791A3.357,3.357,0,0,1,4.791,1.437H10.54a3.357,3.357,0,0,1,3.354,3.354Z" fill="#fff"/>
    </g>
  </g>
  <g id="Group_115" data-name="Group 115" transform="translate(3.833 3.833)">
    <g id="Group_114" data-name="Group 114">
      <path id="Path_339" data-name="Path 339" d="M131.833,128a3.833,3.833,0,1,0,3.833,3.833A3.833,3.833,0,0,0,131.833,128Zm0,6.228a2.4,2.4,0,1,1,2.4-2.4A2.4,2.4,0,0,1,131.833,134.228Z" transform="translate(-128 -128)" fill="#fff"/>
    </g>
  </g>
  <g id="Group_117" data-name="Group 117" transform="translate(11.275 3.034)">
    <g id="Group_116" data-name="Group 116">
      <circle id="Ellipse_6" data-name="Ellipse 6" cx="0.511" cy="0.511" r="0.511" fill="#fff"/>
    </g>
  </g>
</svg>
