<svg id="linkedin-logo" xmlns="http://www.w3.org/2000/svg" width="15.365" height="14.682" viewBox="0 0 15.365 14.682">
  <path id="LinkedIn" d="M15.365,18.56V24.24H12.072v-5.3c0-1.331-.476-2.24-1.668-2.24a1.8,1.8,0,0,0-1.69,1.2,2.253,2.253,0,0,0-.109.8V24.24H5.31s.044-8.977,0-9.907H8.6v1.4l-.022.032H8.6v-.032A3.271,3.271,0,0,1,11.573,14.1C13.74,14.1,15.365,15.517,15.365,18.56Zm-13.5-9a1.717,1.717,0,1,0-.044,3.424h.022a1.717,1.717,0,1,0,.022-3.424ZM.2,24.24H3.489V14.333H.2Z" transform="translate(0 -9.558)" fill="#fff"/>
</svg>
