<svg xmlns="http://www.w3.org/2000/svg" width="122.074" height="22.32" viewBox="0 0 122.074 22.32">
  <g id="Group_145" data-name="Group 145" transform="translate(-413.305 -3352.268)">
    <g id="Group_10" data-name="Group 10" transform="translate(442.289 3355.154)">
      <path id="Path_35" data-name="Path 35" d="M44.152,26.689a2.657,2.657,0,0,1,1.653.564,2.219,2.219,0,0,0,3.132-.428,2.173,2.173,0,0,0-.428-3.093,7.062,7.062,0,0,0-4.357-1.478,7.18,7.18,0,0,0-7.158,6.983,1.883,1.883,0,0,0-2.081,1.07,3.973,3.973,0,0,1-5.057,2.081l6.107-4.24c1.3-.914,1.751-2.237.661-3.521a7.133,7.133,0,0,0-12.448,4.688,1.908,1.908,0,0,0-2.353.992,3.973,3.973,0,0,1-5.057,2.081l6.107-4.24c1.3-.914,1.751-2.237.661-3.521a7.114,7.114,0,0,0-9.375-1.109,7.376,7.376,0,0,0-1.926,1.964,2.194,2.194,0,0,0-.6-2.587,2.142,2.142,0,0,0-1.459-.525H2.1a2.072,2.072,0,1,0,0,4.143H5.679L.564,32.679a2.222,2.222,0,0,0,1.712,3.657h7.936A2.25,2.25,0,0,0,12.448,34.1a2.615,2.615,0,0,0-.136-.778,6.931,6.931,0,0,0,2.334,2.237,7.543,7.543,0,0,0,7.994-.506,8.137,8.137,0,0,0,2.334-2.49,7.016,7.016,0,0,0,2.781,3,7.543,7.543,0,0,0,7.994-.506,7.947,7.947,0,0,0,2.178-2.237,7.188,7.188,0,0,0,6.282,3.734,7.021,7.021,0,0,0,4.357-1.478A2.22,2.22,0,0,0,49,31.979a2.254,2.254,0,0,0-3.132-.428,3,3,0,0,1-1.712.564,2.713,2.713,0,0,1,0-5.427ZM10.211,31.9H6.983L11.9,26.027c.019-.019.019-.039.039-.058a7.09,7.09,0,0,0-.7,4.882,7.439,7.439,0,0,0,.681,1.867A2.2,2.2,0,0,0,10.211,31.9Zm5.932-5.485a2.927,2.927,0,0,1,3.521.078l-4.688,3.248A3,3,0,0,1,16.144,26.416Zm13.09,0a2.927,2.927,0,0,1,3.521.078l-4.688,3.248A2.97,2.97,0,0,1,29.234,26.416Z" transform="translate(0 -17.916)" fill="#fff"/>
      <path id="Path_36" data-name="Path 36" d="M272.556,22.317a1.973,1.973,0,0,0-1.614.778A7.318,7.318,0,0,0,267.5,22.2a7.1,7.1,0,0,0-4.96,2,2.178,2.178,0,0,0-2.081-1.984,6.377,6.377,0,0,0-2.956.622,2.153,2.153,0,0,0-1.4-.525,2.1,2.1,0,0,0-2.1,2.1v9.667a2.217,2.217,0,1,0,4.435,0v-5.7a1.783,1.783,0,0,1,1.789-1.712,2.232,2.232,0,0,0,.72-.117,7.063,7.063,0,0,0-.564,2.8,7.164,7.164,0,0,0,7.158,7.158,7.372,7.372,0,0,0,3.5-.895,2.257,2.257,0,0,0,1.556.681,2.117,2.117,0,0,0,2.1-2.1V24.417A2.191,2.191,0,0,0,272.556,22.317ZM267.5,32.081a2.7,2.7,0,1,1,2.7-2.7A2.686,2.686,0,0,1,267.5,32.081Z" transform="translate(-204.596 -17.882)" fill="#fff"/>
      <path id="Path_37" data-name="Path 37" d="M368.616,4.435A2.233,2.233,0,0,0,370.833,2.2,2.238,2.238,0,0,0,368.616,0,5.819,5.819,0,0,0,362.8,5.816V16.222a2.217,2.217,0,0,0,4.435,0V10.795h1.653a1.951,1.951,0,0,0,1.965-1.926A1.984,1.984,0,0,0,368.888,6.9h-1.653V5.816A1.374,1.374,0,0,1,368.616,4.435Z" transform="translate(-292.234)" fill="#fff"/>
      <path id="Path_38" data-name="Path 38" d="M412.616,8.325a1.945,1.945,0,1,0,0-3.89h-2.042v-2.2a2.237,2.237,0,1,0-4.474,0V12.584a5.618,5.618,0,0,0,5.641,5.835h.428a2.237,2.237,0,0,0,0-4.474h-.428a1.207,1.207,0,0,1-1.167-1.362V8.325Z" transform="translate(-327.112)" fill="#fff"/>
      <path id="Path_39" data-name="Path 39" d="M457.656,71.6a2.256,2.256,0,1,0,2.256,2.256A2.258,2.258,0,0,0,457.656,71.6Zm.156,2.879a.513.513,0,0,0,.37-.136.235.235,0,0,1,.292.37,1,1,0,0,1-.661.214,1.089,1.089,0,1,1,0-2.178,1.056,1.056,0,0,1,.661.233.235.235,0,0,1-.292.37.672.672,0,0,0-.389-.136.627.627,0,0,0-.622.622A.675.675,0,0,0,457.812,74.479Z" transform="translate(-366.823 -57.674)" fill="#fff"/>
    </g>
    <g id="mitten" transform="translate(420.664 3352.268) rotate(30)">
      <g id="Group_2" data-name="Group 2">
        <g id="Group_1" data-name="Group 1">
          <path id="Path_2" data-name="Path 2" d="M17.147,7.926a2.1,2.1,0,0,0-2.955.268l-.557.686c0-1.367,0-2.282,0-3.636a5.244,5.244,0,1,0-10.489,0V12.11a2.6,2.6,0,0,0-1.573-.538,1.573,1.573,0,0,0,0,3.147H14.231l3.184-3.838A2.1,2.1,0,0,0,17.147,7.926ZM1.573,13.67a.524.524,0,0,1,0-1.049A1.577,1.577,0,0,1,3.057,13.67Z" fill="#fff"/>
        </g>
      </g>
      <g id="Group_4" data-name="Group 4" transform="translate(3.147 15.768)">
        <g id="Group_3" data-name="Group 3">
          <path id="Path_3" data-name="Path 3" d="M0,0V1.608a.524.524,0,0,0,.524.524h9.44a.524.524,0,0,0,.524-.524V0Z" fill="#fff"/>
        </g>
      </g>
    </g>
  </g>
</svg>
