<svg xmlns="http://www.w3.org/2000/svg" width="158.545" height="37.439" viewBox="0 0 158.545 37.439">
  <g id="Group_145" data-name="Group 145" transform="translate(-368.382 -13.705)">
    <g id="mitten" transform="translate(380.727 13.705) rotate(30)">
      <g id="Group_2" data-name="Group 2">
        <g id="Group_1" data-name="Group 1">
          <path id="Path_2" data-name="Path 2" d="M28.761,13.295a3.525,3.525,0,0,0-4.956.45L22.871,14.9V8.8a8.8,8.8,0,0,0-17.593,0V20.313a4.356,4.356,0,0,0-2.639-.9,2.639,2.639,0,0,0,0,5.278H23.871l5.341-6.439A3.524,3.524,0,0,0,28.761,13.295ZM2.639,22.93a.88.88,0,1,1,0-1.759A2.644,2.644,0,0,1,5.128,22.93Z" fill="#fdffd5"/>
        </g>
      </g>
      <g id="Group_4" data-name="Group 4" transform="translate(5.278 26.448)">
        <g id="Group_3" data-name="Group 3">
          <path id="Path_3" data-name="Path 3" d="M90,451v2.7a.879.879,0,0,0,.88.88h15.834a.879.879,0,0,0,.88-.88V451Z" transform="translate(-90 -451)" fill="#fff"/>
        </g>
      </g>
    </g>
    <g id="Group_143" data-name="Group 143" transform="translate(412.959 21.594)">
      <path id="Path_28" data-name="Path 28" d="M54.055,27.686a3.253,3.253,0,0,1,2.024.691,2.717,2.717,0,0,0,3.834-.524,2.661,2.661,0,0,0-.524-3.786,8.645,8.645,0,0,0-5.334-1.81,8.79,8.79,0,0,0-8.763,8.549,2.3,2.3,0,0,0-2.548,1.31,4.864,4.864,0,0,1-6.191,2.548l7.477-5.191c1.6-1.119,2.143-2.738.81-4.31A8.733,8.733,0,0,0,29.6,30.9a2.336,2.336,0,0,0-2.881,1.214,4.864,4.864,0,0,1-6.191,2.548L28,29.472c1.6-1.119,2.143-2.738.81-4.31A8.71,8.71,0,0,0,17.336,23.8a9.03,9.03,0,0,0-2.357,2.405,2.686,2.686,0,0,0-.738-3.167,2.622,2.622,0,0,0-1.786-.643H2.572a2.536,2.536,0,1,0,0,5.072H6.953L.691,35.02a2.72,2.72,0,0,0,2.1,4.477H12.5a2.754,2.754,0,0,0,2.738-2.738,3.2,3.2,0,0,0-.167-.953,8.485,8.485,0,0,0,2.858,2.738,9.234,9.234,0,0,0,9.787-.619,9.962,9.962,0,0,0,2.858-3.048,8.59,8.59,0,0,0,3.405,3.667,9.234,9.234,0,0,0,9.787-.619,9.729,9.729,0,0,0,2.667-2.738,8.8,8.8,0,0,0,7.692,4.572,8.6,8.6,0,0,0,5.334-1.81,2.718,2.718,0,0,0,.524-3.786,2.759,2.759,0,0,0-3.834-.524,3.672,3.672,0,0,1-2.1.691,3.322,3.322,0,0,1,0-6.644ZM12.5,34.067H8.549l6.025-7.191c.024-.024.024-.048.048-.071a8.68,8.68,0,0,0-.857,5.977,9.107,9.107,0,0,0,.833,2.286A2.69,2.69,0,0,0,12.5,34.067Zm7.263-6.715a3.584,3.584,0,0,1,4.31.1l-5.739,3.977A3.672,3.672,0,0,1,19.765,27.352Zm16.026,0a3.584,3.584,0,0,1,4.31.1l-5.739,3.977A3.636,3.636,0,0,1,35.791,27.352Z" transform="translate(0 -16.946)" fill="#fdffd5"/>
      <path id="Path_29" data-name="Path 29" d="M276.717,22.343a2.416,2.416,0,0,0-1.976.953,8.96,8.96,0,0,0-4.215-1.1,8.691,8.691,0,0,0-6.072,2.453,2.667,2.667,0,0,0-2.548-2.429,7.807,7.807,0,0,0-3.62.762,2.636,2.636,0,0,0-1.715-.643A2.576,2.576,0,0,0,254,24.915V36.75a2.715,2.715,0,1,0,5.429,0V29.772a2.183,2.183,0,0,1,2.191-2.1,2.733,2.733,0,0,0,.881-.143,8.647,8.647,0,0,0-.691,3.429,8.77,8.77,0,0,0,8.763,8.763,9.025,9.025,0,0,0,4.286-1.1,2.763,2.763,0,0,0,1.905.833,2.592,2.592,0,0,0,2.572-2.572V24.915A2.682,2.682,0,0,0,276.717,22.343ZM270.526,34.3a3.31,3.31,0,1,1,3.31-3.31A3.288,3.288,0,0,1,270.526,34.3Z" transform="translate(-193.515 -16.914)" fill="#fdffd5"/>
      <path id="Path_30" data-name="Path 30" d="M369.92,5.429a2.734,2.734,0,0,0,2.715-2.738A2.74,2.74,0,0,0,369.92,0a7.124,7.124,0,0,0-7.12,7.12V19.86a2.715,2.715,0,1,0,5.429,0V13.216h2.024a2.389,2.389,0,0,0,2.405-2.357,2.429,2.429,0,0,0-2.405-2.405h-2.024V7.12A1.682,1.682,0,0,1,369.92,5.429Z" transform="translate(-276.407)" fill="#fdffd5"/>
      <path id="Path_31" data-name="Path 31" d="M414.077,10.192a2.381,2.381,0,1,0,0-4.763h-2.5V2.738a2.738,2.738,0,0,0-5.477,0V15.407a6.877,6.877,0,0,0,6.906,7.144h.524a2.738,2.738,0,1,0,0-5.477h-.524a1.478,1.478,0,0,1-1.429-1.667V10.192Z" transform="translate(-309.396)" fill="#fdffd5"/>
      <path id="Path_32" data-name="Path 32" d="M458.162,71.6a2.762,2.762,0,1,0,2.762,2.762A2.764,2.764,0,0,0,458.162,71.6Zm.19,3.524a.628.628,0,0,0,.452-.167.288.288,0,0,1,.357.452,1.226,1.226,0,0,1-.81.262,1.334,1.334,0,0,1,0-2.667,1.293,1.293,0,0,1,.81.286.288.288,0,0,1-.357.452.823.823,0,0,0-.476-.167.767.767,0,0,0-.762.762A.826.826,0,0,0,458.353,75.124Z" transform="translate(-346.956 -54.55)" fill="#fdffd5"/>
    </g>
  </g>
</svg>
