<svg id="rss" xmlns="http://www.w3.org/2000/svg" width="14.625" height="14.682" viewBox="0 0 14.625 14.682">
  <path id="XMLID_789_" d="M4.85,222.123a2.123,2.123,0,1,0-2.123,2.123A2.125,2.125,0,0,0,4.85,222.123Z" transform="translate(-0.605 -209.581)" fill="#fff"/>
  <path id="XMLID_790_" d="M.884,105.121A6.326,6.326,0,0,1,5.394,107a6.4,6.4,0,0,1,1.869,4.543.237.237,0,0,0,.237.237h2.723a.237.237,0,0,0,.237-.237,9.607,9.607,0,0,0-9.576-9.616.237.237,0,0,0-.237.237v2.724A.237.237,0,0,0,.884,105.121Z" transform="translate(-0.645 -97.097)" fill="#fff"/>
  <path id="XMLID_791_" d="M.963,0A.237.237,0,0,0,.726.237V2.96A.237.237,0,0,0,.963,3.2,11.23,11.23,0,0,1,12.149,14.445a.237.237,0,0,0,.237.237h2.722a.237.237,0,0,0,.237-.237A14.43,14.43,0,0,0,.963,0Z" transform="translate(-0.72)" fill="#fff"/>
</svg>
