<svg id="twitter-logo-silhouette" xmlns="http://www.w3.org/2000/svg" width="18.254" height="14.827" viewBox="0 0 18.254 14.827">
  <g id="Group_111" data-name="Group 111" transform="translate(0 0)">
    <path id="Path_337" data-name="Path 337" d="M18.255,59.2a7.478,7.478,0,0,1-2.15.59,3.76,3.76,0,0,0,1.646-2.07,7.549,7.549,0,0,1-2.379.909A3.747,3.747,0,0,0,8.99,62.038a10.631,10.631,0,0,1-7.718-3.912,3.749,3.749,0,0,0,1.159,5,3.745,3.745,0,0,1-1.7-.47V62.7a3.748,3.748,0,0,0,3,3.672,3.793,3.793,0,0,1-.987.131,3.594,3.594,0,0,1-.7-.07,3.747,3.747,0,0,0,3.5,2.6,7.513,7.513,0,0,1-4.65,1.6A7.957,7.957,0,0,1,0,70.584a10.585,10.585,0,0,0,5.74,1.685A10.58,10.58,0,0,0,16.394,61.615l-.013-.485A7.478,7.478,0,0,0,18.255,59.2Z" transform="translate(-0.001 -57.441)" fill="#fff"/>
  </g>
</svg>
